<?xml version="1.0" standalone="no"?><!DOCTYPE svg PUBLIC "-//W3C//DTD SVG 1.1//EN" "http://www.w3.org/Graphics/SVG/1.1/DTD/svg11.dtd">
<svg xmlns:xlink="http://www.w3.org/1999/xlink"
     style=""
     class="icon"
     height="200"
     p-id="1436"
     t="1482118288192"
     version="1.1"
     viewBox="0 0 6003 1024"
     width="1172.4609375"
     xmlns="http://www.w3.org/2000/svg">
    <defs>
        <style type="text/css"></style>
    </defs>
    <path
        d="M2271.632184 282.482759c-23.54023 11.770115-153.011494 58.850575-188.321839 82.390805-1106.390805 506.114943-1836.137931 235.402299-2059.770115 129.471264 600.275862 317.793103 1388.873563 329.563218 2118.62069 35.310345 23.54023-11.770115 153.011494-58.850575 188.321839-82.390805 1106.390805-506.114943 1836.137931-235.402299 2059.770115-129.471264C3801.747126-11.770115 3013.149425-11.770115 2271.632184 282.482759z"
        fill="#2c2c2c"
        p-id="1437"></path>
    <path
        d="M3837.057471 506.114943c-23.54023 11.770115-153.011494 58.850575-188.321839 82.390805-1106.390805 506.114943-1836.137931 235.402299-2059.770115 129.471264 600.275862 317.793103 1388.873563 329.563218 2118.62069 35.310345 23.54023-11.770115 153.011494-58.850575 188.321839-82.390805 1106.390805-506.114943 1836.137931-235.402299 2059.770115-129.471264C5355.402299 223.632184 4566.804598 211.862069 3837.057471 506.114943z"
        fill="#2c2c2c"
        p-id="1438"></path>
</svg>