<?xml version="1.0" standalone="no"?><!DOCTYPE svg PUBLIC "-//W3C//DTD SVG 1.1//EN" "http://www.w3.org/Graphics/SVG/1.1/DTD/svg11.dtd"><svg width="200.1953125" height="200" viewBox="0 0 200.1953125 200" version="1.1" xmlns="http://www.w3.org/2000/svg" xmlns:xlink="http://www.w3.org/1999/xlink"><defs><style type="text/css"><![CDATA[
@font-face {
  font-family: "ifont";
  src: url("//at.alicdn.com/t/font_1442373896_4754455.eot?#iefix") format("embedded-opentype"), url("//at.alicdn.com/t/font_1442373896_4754455.woff") format("woff"), url("//at.alicdn.com/t/font_1442373896_4754455.ttf") format("truetype"), url("//at.alicdn.com/t/font_1442373896_4754455.svg#ifont") format("svg");
}

]]></style></defs><g class="transform-group"><g transform="scale(0.1953125, 0.1953125)"><path d="M736.091 48.154c-88.108 0-170.03 43.081-223.952 114.12-53.89-71.056-135.796-114.12-223.952-114.12-158.829 0-288.048 137.701-288.048 306.973 0 100.983 46.281 171.824 83.484 228.742 108.124 165.327 379.983 371.071 391.5 379.745 11.093 8.358 24.061 12.54 37 12.54 12.969 0 25.919-4.182 37-12.54 11.529-8.674 283.405-214.418 391.498-379.745 37.221-56.919 83.517-127.759 83.517-228.742C1024.137 185.855 894.918 48.154 736.091 48.154zM888.027 544.8C785.106 702.22 512.122 907.829 512.122 907.829S239.169 702.219 136.215 544.8c-37.969-58.117-71.968-113.353-71.968-189.673 0-131.788 100.251-238.665 223.938-238.665 91.405 0 169.875 58.451 204.686 142.132l0-0.417 0.094 0c2.594 8.726 10.155 15.088 19.157 15.088 9.033 0 16.594-6.362 19.171-15.088l0.266 0c34.892-83.431 113.251-141.715 204.531-141.715 123.657 0 223.938 106.877 223.938 238.665C960.029 431.447 926.028 486.684 888.027 544.8z" fill="#272636"></path></g></g></svg>